<svg version="1.1" id="Layer_1" xmlns:x="ns_extend;" xmlns:i="ns_ai;" xmlns:graph="ns_graphs;" xmlns="http://www.w3.org/2000/svg" xmlns:xlink="http://www.w3.org/1999/xlink" x="0px" y="0px" viewBox="0 0 97.5 97.5" style="enable-background:new 0 0 97.5 97.5;" xml:space="preserve">
 <style type="text/css">
  .st0{fill:#FFFFFF;}
 </style>
 <metadata>
  <sfw xmlns="ns_sfw;">
   <slices>
   </slices>
   <sliceSourceBounds bottomLeftOrigin="true" height="97.5" width="97.5" x="151.5" y="-249">
   </sliceSourceBounds>
  </sfw>
 </metadata>
 <g>
  <ellipse transform="matrix(0.9732 -0.2298 0.2298 0.9732 -9.8986 12.5074)" cx="48.8" cy="48.8" rx="48.7" ry="48.7">
  </ellipse>
  <g>
   <path class="st0" d="M66.8,23.1c-4.5-0.1-7.4,1-9.2,3.3c-2.4-2-6.4-3.3-9.7-3.3c-10.2,0-15.5,6.4-15.5,12.9c0,4.5,2.6,7.3,5.8,9.8
			c-1.7,0.5-6.1,3.2-6.1,6.8c0,4,4,4.9,5.8,6v0.1c-3.4,0-7.1,2.2-7.1,6.8c0,5.8,7,8.8,17.6,8.8c12.6,0,18.2-5.7,18.2-11
			c0-14.8-25.9-6.7-25.9-12.7c0-2.1,3.3-2.3,7.3-2.3c9.8,0,14.8-5,14.8-12c0-2.8-0.9-5-2.1-6.6c1.4-0.9,3.9-0.9,6.1-0.9V23.1z
			 M46,60.2c9.1,0,11.9,2.6,11.9,4.3c0,1.3-2,4.1-8.1,4.1c-7.9,0-10.4-1.3-10.4-4.1C39.4,62.9,40.9,60.2,46,60.2z M47.8,41.9
			c-4,0-6.8-2.7-6.8-6.1s2.8-6.1,6.8-6.1c3.6,0,6.4,2.7,6.4,6.1S51.3,41.9,47.8,41.9z">
   </path>
  </g>
 </g>
</svg>